<?xml version="1.0" encoding="UTF-8"?>
<svg width="48" height="48" xmlns="http://www.w3.org/2000/svg">
 <!-- Created with SVG-edit - http://svg-edit.googlecode.com/ -->
 <title>icon</title>
 <g>
  <title>Layer 1</title>
  <text transform="matrix(1.00467, 0, 0, 1.02879, -2.89369, -5.16552)" xml:space="preserve" text-anchor="middle" font-family="Monospace" font-size="35" id="svg_2" y="38" x="17.375" stroke-width="5" stroke="#0000bf" fill="#0000ff">8</text>
  <text xml:space="preserve" text-anchor="middle" font-family="Cursive" font-size="25" id="svg_3" y="34.25" x="33.5" stroke-width="5" stroke="#00bf00" fill="#0000ff">c</text>
  <line id="svg_4" y2="27.75" x2="13.625" y1="24.375" x1="5.375" stroke="#ffffff" fill="none"/>
  <line id="svg_5" y2="28" x2="12.625" y1="28" x1="4.625" stroke="#ffffff" fill="none"/>
  <path d="m5.375,25.25c0,0.125 0.036612,0.161612 0.125,0.25c0.176777,0.176777 0.103822,0.29719 0.25,0.5c0.231127,0.320671 0.448223,0.073223 0.625,0.25c0.088388,0.088388 0.259515,0.202164 0.375,0.25c0.163321,0.06765 0.161612,0.161612 0.25,0.25c0.088388,0.088388 0.286612,-0.088388 0.375,0c0.088388,0.088388 0.125,0.125 0.25,0.125c0.125,0 0.211679,0.05735 0.375,0.125c0.115485,0.047836 0.25,0 0.375,0c0.125,0 0.125,0.125 0.25,0.125c0.125,0 0.25,0 0.375,0c0.125,0 0.375,0 0.5,0c0.125,0 0.25,0 0.375,0c0.125,0 0.25,0 0.375,0c0.125,0 0.375,0.125 0.375,0c0,-0.125 -0.5,0 -0.625,0c-0.125,0 -0.25,0 -0.5,0c-0.125,0 -0.25,0 -0.375,0c-0.125,0 -0.25,0 -0.375,0c-0.25,0 -0.375,0 -0.5,0c-0.125,0 -0.161612,-0.161612 -0.25,-0.25c-0.088388,-0.088388 -0.077165,-0.134516 -0.125,-0.25c-0.067649,-0.163321 -0.25,-0.25 -0.5,-0.5c-0.125,-0.125 -0.702165,-0.634516 -0.75,-0.75c-0.067649,-0.163321 0,-0.125 0.125,0c0.25,0.25 0.523251,0.461569 0.75,0.625c0.143409,0.103363 0.286612,0.161612 0.375,0.25c0.088388,0.088388 0.137236,0.478054 0.375,0.625c0.106332,0.065716 0.25,0 0.375,0c0.125,0 0.25,0 0.375,0c0.125,0 0.211679,0.05735 0.375,0.125c0.115485,0.047836 0.211679,0.05735 0.375,0.125c0.115485,0.047836 0.25,0.125 0.375,0.125c0.125,0 0.375,0 0.5,0c0.125,0 0.213388,0.088388 0.125,0c-0.088388,-0.088388 -0.286612,-0.036612 -0.375,-0.125c-0.088388,-0.088388 -0.198223,0.051777 -0.375,-0.125c-0.088388,-0.088388 -0.259515,-0.202164 -0.375,-0.25c-0.163321,-0.06765 -0.25,-0.125 -0.375,-0.25c-0.125,-0.125 -0.259515,-0.077164 -0.375,-0.125c-0.163321,-0.06765 -0.523251,-0.211569 -0.75,-0.375c-0.143409,-0.103363 -0.463388,-0.213388 -0.375,-0.125c0.088388,0.088388 0.336679,0.05735 0.5,0.125c0.115485,0.047836 0.25,0 0.375,0c0.125,0 0.286612,-0.088388 0.375,0c0.088388,0.088388 -0.036612,0.161612 -0.125,0.25c-0.176777,0.176777 -0.286612,0.036612 -0.375,0.125c-0.088388,0.088388 -0.125,0.125 -0.125,0.25c0,0.125 0.036612,0.286612 0.125,0.375c0.088388,0.088388 0.286612,0.161612 0.375,0.25c0.088388,0.088388 0.25,0 0.375,0c0.125,0 0.25,0 0.375,0c0.125,0 0.25,0 0.375,0c0.125,0 0.25,0 0.375,0c0.125,0 0.25,0 0.625,0c0.25,0 0.477968,0.185781 0.75,0.25c0.121656,0.028719 0.25,0 0.125,0c-0.125,0 -0.25,0 -0.375,0c-0.125,0 -0.25,0 -0.5,0c-0.125,0 -0.25,0 -0.375,0c-0.125,0 -0.25,0 -0.375,0c-0.125,0 -0.25,0 -0.5,0c-0.25,0 -0.375,0 -0.5,0c-0.125,0 -0.25,0 -0.375,0c-0.125,0 -0.375,0 -0.625,0c-0.25,0 -0.375,0 -0.5,0c-0.125,0 -0.25,0 -0.375,0c-0.25,0 -0.375,0 -0.5,0c-0.125,0 -0.26903,0.095671 -0.5,0c-0.163321,-0.06765 -0.375,-0.125 -0.5,-0.125c-0.125,0 -0.25,0 -0.375,0c-0.125,0 -0.25,0 -0.375,0c-0.125,0 -0.25,0 -0.375,0c-0.125,0 -0.256433,-0.162336 -0.125,-0.375c0.146946,-0.237764 0.26903,-0.154329 0.5,-0.25c0.163321,-0.06765 0.227969,-0.185781 0.5,-0.25c0.121656,-0.028719 0.227969,-0.060781 0.5,-0.125c0.243312,-0.057438 0.463388,0.036612 0.375,0.125c-0.265165,0.265165 -0.5,0 -0.625,0c-0.125,0 -0.161612,0.036612 -0.25,0.125c-0.088388,0.088388 0,0.25 0,0.375c0,0.125 -0.161612,0.213388 -0.25,0.125c-0.088388,-0.088388 -0.040046,-0.253227 0,-0.5c0.063318,-0.390181 0.384515,-0.452164 0.5,-0.5c0.163321,-0.06765 0.25,-0.125 0.375,-0.125c0.125,0 0.326863,0.046501 0,0.5c-0.103363,0.143408 -0.25,0.125 -0.375,0.125l0,0.125l-0.125,0" id="svg_6" stroke="#ffffff" fill="none"/>
  <path d="m6,25.5c0.375,0 0.615485,0.047836 0.5,0c-0.163321,-0.06765 -0.161612,-0.161612 -0.25,-0.25c-0.088388,-0.088388 -0.25,0 -0.375,0c-0.125,0 -0.259515,0.047836 -0.375,0c-0.163321,-0.06765 -0.286612,-0.338388 -0.375,-0.25c-0.088388,0.088388 -0.088388,0.286612 0,0.375c0.088388,0.088388 0.25,0.125 0.375,0.125c0.25,0 0.336679,0.18235 0.5,0.25c0.23097,0.095671 0.211679,0.18235 0.375,0.25c0.115485,0.047836 0.067649,0.163321 0,0c-0.047835,-0.115484 -0.161612,-0.286612 -0.25,-0.375c-0.088388,-0.088388 -0.096281,-0.128344 -0.125,-0.25c-0.064218,-0.272032 -0.106591,-0.603363 -0.25,-0.5c-0.226749,0.163431 0.048359,0.4897 0.375,0.625c0.115485,0.047836 0.125,0.125 0.25,0.375c0.125,0.25 0.125,0.375 0.25,0.375c0.125,0 -0.488792,-0.387289 -0.75,-1.25c-0.072446,-0.239273 0,-0.125 0,0.125c0,0.125 0,0.25 0,0.375l0.125,0" id="svg_7" stroke="#ffffff" fill="none"/>
 </g>
</svg>