<?xml version="1.0" encoding="utf-8"?>
<!-- Generator: Adobe Illustrator 14.0.0, SVG Export Plug-In . SVG Version: 6.00 Build 43363)  -->
<!DOCTYPE svg PUBLIC "-//W3C//DTD SVG 1.1 Tiny//EN" "http://www.w3.org/Graphics/SVG/1.1/DTD/svg11-tiny.dtd">
<svg version="1.1" baseProfile="tiny" id="Layer_1" xmlns="http://www.w3.org/2000/svg" xmlns:xlink="http://www.w3.org/1999/xlink"
	 x="0px" y="0px" width="48px" height="48px" viewBox="0 0 48 48" xml:space="preserve">
<g>
	<linearGradient id="SVGID_1_" gradientUnits="userSpaceOnUse" x1="14.9052734" y1="6.3969727" x2="14.9052715" y2="39.9310265">
		<stop  offset="0" style="stop-color:#2E81C5"/>
		<stop  offset="1" style="stop-color:#002A57"/>
	</linearGradient>
	<path fill="url(#SVGID_1_)" d="M21.2265625,23.0322266c2.421875,1.96875,3.6328125,4.5039063,3.6328125,7.6044922
		c0,2.7441406-0.9775391,5.09375-2.9306641,7.0478516c-1.9541016,1.9541016-4.3037109,2.9306641-7.0478516,2.9306641
		c-3.5527344,0-6.296875-1.5019531-8.234375-4.5048828c-1.1308594-1.7119141-1.6953125-3.2451172-1.6953125-4.6015625v-2.0351563
		H9.359375c0.0634766,1.8212891,0.5488281,3.3505859,1.453125,4.5869141
		c1.0332031,1.4306641,2.4052734,2.1464844,4.1171875,2.1464844c1.5175781,0,2.8164063-0.5429688,3.8994141-1.6289063
		c1.0810547-1.0878906,1.6220703-2.3925781,1.6220703-3.9169922c0-1.5253906-0.5429688-2.8300781-1.6279297-3.9160156
		c-1.0869141-1.0878906-2.3916016-1.6308594-3.9140625-1.6308594c-1.6855469,0-3.2089844,0.8398438-4.5703125,2.5195313
		l-3.1591797-3.1484375c0.6777344-0.7109375,1.1943359-1.2109375,1.5498047-1.5019531
		c-2.5185547-2.1953125-3.7783203-4.7949219-3.7783203-7.7988281c0-2.7128906,0.9765625-5.0454102,2.9306641-6.9995117
		c1.953125-1.9536133,4.2861328-2.9306641,6.9990234-2.9306641c2.7441406,0,5.09375,0.96875,7.0478516,2.90625
		c1.953125,1.9375,2.9306641,4.2797852,2.9306641,7.0239258c0,1.4853516-0.3232422,2.9550781-0.96875,4.4082031
		C23.2441406,21.0458984,22.3564453,22.1923828,21.2265625,23.0322266z M14.9052734,9.6625977
		c-1.4921875,0-2.7900391,0.5493164-3.8925781,1.6469727s-1.6533203,2.390625-1.6533203,3.875
		c0,1.5175781,0.5419922,2.8183594,1.6289063,3.8984375c1.0869141,1.0839844,2.3925781,1.6230469,3.9169922,1.6230469
		s2.8291016-0.5390625,3.9160156-1.6230469c1.0869141-1.0800781,1.6298828-2.3808594,1.6298828-3.8984375
		s-0.5429688-2.8173828-1.6298828-3.8994141C17.734375,10.2036133,16.4296875,9.6625977,14.9052734,9.6625977z"/>
</g>
<g>
	<linearGradient id="SVGID_2_" gradientUnits="userSpaceOnUse" x1="34.2099609" y1="21.1884766" x2="34.2099609" y2="37.6320343">
		<stop  offset="0" style="stop-color:#7E981E"/>
		<stop  offset="1" style="stop-color:#535D0E"/>
	</linearGradient>
	<path fill="url(#SVGID_2_)" d="M35.2998047,40.6152344c-2.7451172,0-5.0859375-0.96875-7.0234375-2.90625
		s-2.90625-4.2792969-2.90625-7.0234375c0-2.7138672,0.9765625-5.0458984,2.9306641-7
		c1.953125-1.9541016,4.2861328-2.9306641,6.9990234-2.9306641c2.7773438,0,5.3115234,1.1621094,7.6044922,3.4882813
		c-0.5488281,0.8398438-1.5498047,1.9853516-3.0029297,3.4384766c-1.3564453-1.6787109-2.8896484-2.5185547-4.6015625-2.5185547
		c-1.5185547,0-2.8173828,0.5410156-3.8994141,1.6230469s-1.6220703,2.3808594-1.6220703,3.8994141
		c0,1.4853516,0.5488281,2.7773438,1.6464844,3.8740234c1.0976563,1.0986328,2.3896484,1.6474609,3.875,1.6474609
		c1.7441406,0,3.2773438-0.8398438,4.6015625-2.5185547l3.1484375,3.1484375
		C40.5957031,39.3554688,38.0126953,40.6152344,35.2998047,40.6152344z"/>
</g>
<g>
	<linearGradient id="SVGID_3_" gradientUnits="userSpaceOnUse" x1="13.815918" y1="24.4506836" x2="13.815918" y2="30.3189125">
		<stop  offset="0" style="stop-color:#205987"/>
		<stop  offset="1" style="stop-color:#001933"/>
	</linearGradient>
	<path fill="url(#SVGID_3_)" d="M18.8242188,26.2880859c-1.0869141-1.0878906-2.3916016-1.6308594-3.9140625-1.6308594
		c-1.6855469,0-3.2089844,0.8398438-4.5703125,2.5195313l-2.9345703-2.9257813
		c-0.0751953,0.078125-0.1455078,0.1494141-0.2255859,0.2333984l3.1591797,3.1484375
		c1.3613281-1.6787109,2.8847656-2.5185547,4.5703125-2.5185547c1.5224609,0,2.8271484,0.5429688,3.9140625,1.6298828
		c1.0302734,1.0322266,1.5556641,2.2666016,1.6074219,3.6943359c0.0029297-0.0800781,0.0214844-0.1533203,0.0214844-0.234375
		C20.4521484,28.6787109,19.9091797,27.3740234,18.8242188,26.2880859z"/>
	<linearGradient id="SVGID_4_" gradientUnits="userSpaceOnUse" x1="23.043457" y1="15.1982422" x2="23.043457" y2="22.6551933">
		<stop  offset="0" style="stop-color:#205987"/>
		<stop  offset="1" style="stop-color:#001933"/>
	</linearGradient>
	<path fill="url(#SVGID_4_)" d="M21.2275391,22.5751953c0.0917969,0.0742188,0.1708984,0.15625,0.2597656,0.2324219
		c1.0019531-0.8164063,1.8095703-1.8808594,2.4033203-3.2158203c0.6455078-1.453125,0.96875-2.9228516,0.96875-4.4072266
		c0-0.0820313-0.0087891-0.1591797-0.0107422-0.2402344c-0.0302734,1.4121094-0.3427734,2.8085938-0.9570313,4.1914063
		C23.2451172,20.5888672,22.3574219,21.7353516,21.2275391,22.5751953z"/>
	<linearGradient id="SVGID_5_" gradientUnits="userSpaceOnUse" x1="14.9052734" y1="29.8339844" x2="14.9052734" y2="40.3989258">
		<stop  offset="0" style="stop-color:#205987"/>
		<stop  offset="1" style="stop-color:#001933"/>
	</linearGradient>
	<path fill="url(#SVGID_5_)" d="M21.9296875,37.2275391c-1.9541016,1.9541016-4.3037109,2.9306641-7.0478516,2.9306641
		c-3.5527344,0-6.296875-1.5019531-8.234375-4.5048828c-1.1308594-1.7119141-1.6953125-3.2451172-1.6953125-4.6015625v-1.578125
		H4.9511719v2.0351563c0,1.3554688,0.5644531,2.8886719,1.6953125,4.6015625
		c1.9375,3.0019531,4.6816406,4.5039063,8.234375,4.5039063c2.7441406,0,5.09375-0.9765625,7.0478516-2.9296875
		c1.953125-1.9550781,2.9306641-4.3046875,2.9306641-7.0488281c0-0.0703125-0.0087891-0.1367188-0.0107422-0.2070313
		C24.7910156,33.0654297,23.8222656,35.3339844,21.9296875,37.2275391z"/>
	<linearGradient id="SVGID_6_" gradientUnits="userSpaceOnUse" x1="14.90625" y1="9.3916016" x2="14.90625" y2="14.8495674">
		<stop  offset="0" style="stop-color:#205987"/>
		<stop  offset="1" style="stop-color:#001933"/>
	</linearGradient>
	<path fill="url(#SVGID_6_)" d="M18.8222656,10.828125c-1.0869141-1.081543-2.3916016-1.6225586-3.9160156-1.6225586
		c-1.4921875,0-2.7900391,0.5493164-3.8925781,1.6469727s-1.6533203,2.390625-1.6533203,3.875
		c0,0.078125,0.0185547,0.1494141,0.0214844,0.2265625c0.0546875-1.3857422,0.5869141-2.6054688,1.6308594-3.6455078
		c1.1025391-1.097168,2.4003906-1.6464844,3.8925781-1.6464844c1.5244141,0,2.8291016,0.5410156,3.9160156,1.6220703
		c1.03125,1.0273438,1.5566406,2.2578125,1.609375,3.6767578c0.0029297-0.0791016,0.0214844-0.1533203,0.0214844-0.2333984
		C20.4521484,13.2099609,19.9091797,11.9101563,18.8222656,10.828125z"/>
	<linearGradient id="SVGID_7_" gradientUnits="userSpaceOnUse" x1="6.8408203" y1="15.1811523" x2="6.8408198" y2="22.5927238">
		<stop  offset="0" style="stop-color:#205987"/>
		<stop  offset="1" style="stop-color:#001933"/>
	</linearGradient>
	<path fill="url(#SVGID_7_)" d="M8.4794922,22.7441406c0.0888672-0.0810547,0.1757813-0.1572266,0.2509766-0.2177734
		c-2.4609375-2.1464844-3.7119141-4.6796875-3.7675781-7.5976563c-0.0019531,0.0859375-0.0117188,0.1689453-0.0117188,0.2558594
		C4.9511719,18.0810547,6.1357422,20.5986328,8.4794922,22.7441406z"/>
</g>
<g>
	<linearGradient id="SVGID_8_" gradientUnits="userSpaceOnUse" x1="36.5273438" y1="32.2666016" x2="36.5273438" y2="36.2607574">
		<stop  offset="0" style="stop-color:#A7C928"/>
		<stop  offset="1" style="stop-color:#6D7A12"/>
	</linearGradient>
	<path fill="url(#SVGID_8_)" d="M35.2998047,36.2080078c-1.4853516,0-2.7773438-0.5488281-3.875-1.6484375
		c-0.7148438-0.7128906-1.171875-1.5195313-1.4208984-2.3984375c0.2021484,1.0527344,0.7158203,1.9960938,1.5458984,2.8261719
		c1.0976563,1.0976563,2.3896484,1.6464844,3.875,1.6464844c1.7441406,0,3.2773438-0.8398438,4.6015625-2.5175781
		l2.8691406,2.8691406c0.0507813-0.0517578,0.1035156-0.0957031,0.1542969-0.1484375l-3.1484375-3.1484375
		C38.5771484,35.3681641,37.0439453,36.2080078,35.2998047,36.2080078z"/>
	<linearGradient id="SVGID_9_" gradientUnits="userSpaceOnUse" x1="34.1367188" y1="21.0395508" x2="34.1367188" y2="31.8355007">
		<stop  offset="0" style="stop-color:#A7C928"/>
		<stop  offset="1" style="stop-color:#6D7A12"/>
	</linearGradient>
	<path fill="url(#SVGID_9_)" d="M25.4951172,31.1123047c0-2.7128906,0.9765625-5.0449219,2.9306641-7
		c1.953125-1.953125,4.2861328-2.9296875,6.9990234-2.9296875c2.6748047,0,5.1210938,1.0888672,7.3466797,3.2451172
		c0.0400391-0.0595703,0.0957031-0.1279297,0.1328125-0.1845703c-2.2929688-2.3251953-4.8271484-3.4882813-7.6044922-3.4882813
		c-2.7128906,0-5.0458984,0.9775391-6.9990234,2.9316406c-1.9541016,1.953125-2.9306641,4.2861328-2.9306641,7
		c0,1.1015625,0.1640625,2.1357422,0.4765625,3.1074219C25.6181641,32.9472656,25.4951172,32.0556641,25.4951172,31.1123047z"/>
</g>
<g>
	<linearGradient id="SVGID_10_" gradientUnits="userSpaceOnUse" x1="36.2949219" y1="24.1992188" x2="36.2949219" y2="29.4906693">
		<stop  offset="0" style="stop-color:#5D7016"/>
		<stop  offset="1" style="stop-color:#303608"/>
	</linearGradient>
	<path fill="url(#SVGID_10_)" d="M35.2539063,24.6826172c-1.5185547,0-2.8173828,0.5410156-3.8994141,1.6230469
		s-1.6220703,2.3808594-1.6220703,3.8994141c0,0.0849609,0.0195313,0.1621094,0.0234375,0.2451172
		c0.0585938-1.40625,0.5791016-2.625,1.5986328-3.6445313c1.0820313-1.0820313,2.3808594-1.6230469,3.8994141-1.6230469
		c1.7119141,0,3.2451172,0.8398438,4.6015625,2.5185547c1.453125-1.453125,2.4541016-2.5986328,3.0029297-3.4384766
		c-0.0712891-0.0722656-0.1435547-0.1328125-0.2148438-0.203125c-0.5771484,0.8085938-1.4921875,1.8457031-2.7880859,3.1416016
		C38.4990234,25.5224609,36.9658203,24.6826172,35.2539063,24.6826172z"/>
	<linearGradient id="SVGID_11_" gradientUnits="userSpaceOnUse" x1="34.1640625" y1="30.6806641" x2="34.1640625" y2="39.1063957">
		<stop  offset="0" style="stop-color:#5D7016"/>
		<stop  offset="1" style="stop-color:#303608"/>
	</linearGradient>
	<path fill="url(#SVGID_11_)" d="M35.2539063,40.1347656c-2.7451172,0-5.0859375-0.96875-7.0234375-2.90625
		c-1.8769531-1.8769531-2.8359375-4.1376953-2.8945313-6.7705078c-0.0019531,0.0820313-0.0117188,0.1630859-0.0117188,0.2470703
		c0,2.7441406,0.96875,5.0859375,2.90625,7.0234375s4.2783203,2.90625,7.0234375,2.90625
		c2.7128906,0,5.2958984-1.2597656,7.75-3.7783203l-0.2558594-0.2558594
		C40.3701172,38.9482422,37.8730469,40.1347656,35.2539063,40.1347656z"/>
</g>
<g>
	<linearGradient id="SVGID_12_" gradientUnits="userSpaceOnUse" x1="14.7441406" y1="5.1430664" x2="14.7441397" y2="37.060585">
		<stop  offset="0" style="stop-color:#479ADE"/>
		<stop  offset="1" style="stop-color:#00458F"/>
	</linearGradient>
	<path fill="url(#SVGID_12_)" d="M9.2480469,15.6181641c0,1.5175781,0.5419922,2.8173828,1.6289063,3.8984375
		c1.0869141,1.0830078,2.3925781,1.6230469,3.9169922,1.6230469s2.8291016-0.5400391,3.9160156-1.6230469
		c0.8203125-0.8164063,1.3291016-1.7578125,1.5302734-2.8232422c-0.2470703,0.8857422-0.6992188,1.6904297-1.4052734,2.3925781
		c-1.0869141,1.0830078-2.3916016,1.6230469-3.9160156,1.6230469s-2.8300781-0.5400391-3.9169922-1.6230469
		c-1.0869141-1.0810547-1.6289063-2.3808594-1.6289063-3.8994141c0-0.3574219,0.0351563-0.7041016,0.0996094-1.0410156
		C9.3388672,14.6162109,9.2480469,15.1005859,9.2480469,15.6181641z"/>
	<linearGradient id="SVGID_13_" gradientUnits="userSpaceOnUse" x1="7.9057617" y1="5.1430664" x2="7.9057603" y2="37.060585">
		<stop  offset="0" style="stop-color:#479ADE"/>
		<stop  offset="1" style="stop-color:#00458F"/>
	</linearGradient>
	<path fill="url(#SVGID_13_)" d="M8.6181641,23.4160156c-0.0625-0.0546875-0.1152344-0.1123047-0.1767578-0.1689453
		c-0.3261719,0.296875-0.7421875,0.7099609-1.2480469,1.2402344l0.1484375,0.1484375
		C7.8828125,24.078125,8.3134766,23.6650391,8.6181641,23.4160156z"/>
	<linearGradient id="SVGID_14_" gradientUnits="userSpaceOnUse" x1="15.0922852" y1="5.1430664" x2="15.0922842" y2="37.0605812">
		<stop  offset="0" style="stop-color:#479ADE"/>
		<stop  offset="1" style="stop-color:#00458F"/>
	</linearGradient>
	<path fill="url(#SVGID_14_)" d="M7.7705078,8.6181641C9.7236328,6.6645508,12.0566406,5.6875,14.7695313,5.6875
		c2.7441406,0,5.09375,0.96875,7.0478516,2.90625c1.953125,1.9375,2.9306641,4.2792969,2.9306641,7.0244141
		c0,0.9873047-0.15625,1.9667969-0.4423828,2.9404297c0.3759766-1.1142578,0.5673828-2.2382813,0.5673828-3.3720703
		c0-2.7441406-0.9775391-5.0859375-2.9306641-7.0234375c-1.9541016-1.9375-4.3037109-2.90625-7.0478516-2.90625
		c-2.7128906,0-5.0458984,0.9770508-6.9990234,2.9306641C6.6044922,9.4780273,5.75,10.9375,5.3115234,12.5595703
		C5.7802734,11.1083984,6.5947266,9.7939453,7.7705078,8.6181641z"/>
	<linearGradient id="SVGID_15_" gradientUnits="userSpaceOnUse" x1="12.6025391" y1="5.1430664" x2="12.6025381" y2="37.0605812">
		<stop  offset="0" style="stop-color:#479ADE"/>
		<stop  offset="1" style="stop-color:#00458F"/>
	</linearGradient>
	<path fill="url(#SVGID_15_)" d="M9.2480469,29.9072266c0.0634766,1.8212891,0.5488281,3.3505859,1.453125,4.5869141
		c1.0332031,1.4296875,2.4052734,2.1464844,4.1171875,2.1464844c1.5175781,0,2.8164063-0.5429688,3.8994141-1.6289063
		c0.8144531-0.8203125,1.3212891-1.7636719,1.5224609-2.8320313c-0.2470703,0.8886719-0.6962891,1.6953125-1.3974609,2.4003906
		c-1.0830078,1.0859375-2.3818359,1.6289063-3.8994141,1.6289063c-1.7119141,0-3.0839844-0.7148438-4.1171875-2.1464844
		c-0.9042969-1.2363281-1.3896484-2.765625-1.453125-4.5869141H4.9648438v0.4316406H9.2480469z"/>
	<linearGradient id="SVGID_16_" gradientUnits="userSpaceOnUse" x1="22.9941406" y1="5.1430664" x2="22.9941387" y2="37.060585">
		<stop  offset="0" style="stop-color:#479ADE"/>
		<stop  offset="1" style="stop-color:#00458F"/>
	</linearGradient>
	<path fill="url(#SVGID_16_)" d="M21.4248047,23.2001953c-0.1044922,0.0859375-0.2001953,0.1835938-0.3095703,0.2646484
		c2.421875,1.9697266,3.6328125,4.5048828,3.6328125,7.6054688c0,0.9355469-0.1230469,1.8212891-0.3496094,2.6660156
		c0.3115234-0.9707031,0.4746094-2.0009766,0.4746094-3.0976563C24.8730469,27.6220703,23.7167969,25.1455078,21.4248047,23.2001953
		z"/>
</g>
</svg>
